<?xml version="1.0" encoding="UTF-8"?>
<svg viewBox="0 0 640 480" xmlns="http://www.w3.org/2000/svg">
 <g fill="#035618">
  <path d="m110.57 351.66s-7.6795-8.6527-18.098-11.891c-10.419-3.2382-11.408 2.0195-23.444 0.11896-11.576-1.8279-13.244-4.4934-24.033-13.572-10.58-8.9032-12.75-13.28-21.933-20.406-9.1825-7.1261-7.1599-6.172-14.332-9.2759-7.1724-3.1039-14.357-3.1398-14.357-3.1398s13.864-0.16678 28.367 1.0857 16.419 0.19998 29.645 3.9242 13.506 3.0176 23.261 10.973c9.7549 7.955 14.521 19.425 18.688 25.582 4.1662 6.157 13.588 11.16 12.922 10.567 3.5147 7.8058 3.3146 6.0348 3.3146 6.0348z" fill-rule="evenodd" stroke="#000" stroke-width=".744"/>
  <path d="m230.19-3.331c-89.663 41.305-152.44 128.68-152.44 233.79 0 110.4 68.754 204.85 165.72 242.94v-6.5384c-93.54-37.734-159.58-129.37-159.58-236.4 0-70.35 28.525-134.04 74.643-180.16 21.247-21.247 46.63-39.256 74.274-51.964-0.96684-1.7731-1.817 0.19386-2.6065-1.671z" stroke-linecap="round" stroke-linejoin="round" stroke-width="6.533"/>
  <g fill-rule="evenodd" stroke="#000">
   <path d="m178.66 434.15s-5.9516-12.234-3.9677-25.129 8.7565-11.695 13.226-25.79c4.2984-13.556 2.0753-16.556-2.6451-32.403-4.629-15.54-8.5967-19.839-11.903-33.064-3.3064-13.226-3.3064-10.581-2.9758-19.839 0.33064-9.258 4.2984-17.194 4.2984-17.194s-7.9354 15.21-14.548 31.742c-6.6128 16.532-8.9274 18.185-11.903 34.387-2.9758 16.202-3.9677 16.202 0 30.419 3.9677 14.218 14.879 24.468 19.839 31.742 4.9596 7.2741 5.6209 19.839 5.2903 18.847 7.2741 7.2742 5.2903 6.2822 5.2903 6.2822z" stroke-width=".926"/>
   <path d="m112.26 349.35s-1.0691-11.528 4.2807-21.306c5.3498-9.7772 10.309-6.8664 17.962-16.892 7.3598-9.6422 6.4985-12.688 7.4582-26.762 0.94104-13.801-0.90659-18.392 0.39093-29.956s0.51932-9.4412 3.5024-16.775c2.983-7.334 8.4299-12.561 8.4299-12.561s-10.699 9.9228-20.75 21.287-12.353 12.026-19.453 24.171c-7.1006 12.145-7.8787 11.86-8.9493 24.41s4.4724 23.913 6.2225 31.176c1.7502 7.2634-1.4276 17.536-1.3951 16.645 3.5656 7.929 2.3014 6.5625 2.3014 6.5625z" stroke-width=".782"/>
   <path d="m82.118 237.73s3.116-9.2546 10.931-14.767c7.8149-5.5124 10.905-1.4248 20.709-6.2682 9.4297-4.6582 9.7745-7.3196 15.451-17.772 5.5663-10.25 5.6314-14.466 10.716-22.864 5.0847-8.398 3.7049-7.0581 8.7155-11.578 5.0106-4.5195 11.327-6.5005 11.327-6.5005s-12.288 3.6269-24.54 8.6032-14.384 4.6246-24.468 11.302c-10.084 6.6775-10.628 6.1679-15.867 15.408-5.2393 9.2401-4.5992 20.038-5.6723 26.271-1.0731 6.2327-7.2642 12.937-6.9282 12.264 0.19678 7.4219-0.37431 5.9002-0.37431 5.9002z" stroke-width=".684"/>
   <path d="m99.301 139.73s7.136-10.4 15.425-13.342c8.2892-2.9426 10.029 1.3948 19.92-0.47778 9.5131-1.801 10.472-4.0533 18.075-11.851 7.4556-7.6462 8.5476-11.331 15.121-17.468 6.5737-6.1376 5.0202-5.2963 10.577-8.0477 5.5564-2.7514 11.649-2.9578 11.649-2.9578s-11.797 0.20252-23.893 1.5982c-12.096 1.3956-13.903 0.56961-24.492 3.9844s-10.947 2.8354-17.865 9.6747c-6.9175 6.8393-8.9984 16.472-11.48 21.682-2.4817 5.2103-9.6218 9.5926-9.1586 9.084-1.6462 6.5621-3.8794 8.1208-3.8794 8.1208z" stroke-width=".626"/>
   <g stroke-width=".552">
    <path d="m142.67 64.892s6.9375-4.3629 15.728-4.7122c8.791-0.3493 9.2187 3.2637 19.24 4.0659 9.6381 0.77158 11.202-0.69119 20.724-4.8045 9.3373-4.0336 11.439-6.5323 19.499-9.6393s6.3296-2.826 12.445-3.6396c6.1157-0.81363 12.017 0.38507 12.017 0.38507s-11.371-2.4677-23.37-4.1142-13.495-2.6619-24.627-2.4717c-11.132 0.19016-11.309-0.32033-19.9 3.2324-8.5905 3.5528-13.342 10.257-17.213 13.583-3.8705 3.3254-11.972 5.0009-11.382 4.7253-3.4561 4.5165-3.1625 3.3902-3.1625 3.3902z"/>
    <path d="m201.4 15.063s7.6175-3.0228 16.324-1.761c8.707 1.2618 8.4678 4.8921 18.174 7.5107 9.3352 2.5185 11.14 1.3659 21.253-0.9397 9.9168-2.2608 12.439-4.3338 20.931-5.9169 8.4918-1.5831 6.7392-1.6227 12.901-1.3059 6.1614 0.31674 11.745 2.5729 11.745 2.5729s-10.729-4.5025-22.226-8.3123-12.782-5.0813-23.762-6.9269c-10.979-1.8456-11.061-2.38-20.156-0.45552-9.0948 1.9244-14.991 7.6487-19.403 10.211-4.4127 2.5628-12.684 2.7308-12.053 2.5676-4.2227 3.8095-3.7283 2.7557-3.7283 2.7557z"/>
   </g>
   <path d="m167.71 426.03s-11.877-6.5981-24.863-5.3669c-12.986 1.2311-12.172 8.0138-26.497 11.64-13.778 3.4879-16.646 1.113-32.2-4.4708-15.253-5.4756-19.319-9.6543-32.336-13.687-13.017-4.0324-10.376-3.8815-19.638-4.0818-9.2616-0.20032-17.409 3.2805-17.409 3.2805s15.634-6.9993 32.514-12.612 18.662-7.813 35.005-9.8389c16.344-2.0259 16.4-3.0093 30.37 1.7353 13.97 4.7445 23.585 16.146 30.566 21.478 6.9814 5.3318 19.488 6.7042 18.516 6.3198 6.8502 7.6263 5.9723 5.603 5.9723 5.603z" stroke-width=".923"/>
   <path d="m82.163 250.16s-3.5369-8.866-10.077-13.558c-6.54-4.692-8.3006-0.33462-16.233-4.1668-7.6289-3.6857-8.2359-6.2898-13.835-16.09-5.491-9.6104-6.0946-13.783-10.983-21.605-4.8888-7.8223-3.6858-6.6305-8.0088-10.615-4.3229-3.985-9.283-5.3244-9.283-5.3244s9.6194 2.3809 19.39 6.103c9.7704 3.7221 11.31 3.1627 19.692 8.7854 8.3815 5.6228 8.7193 5.0638 13.834 13.706 5.1147 8.6418 6.0604 19.409 7.6796 25.481 1.6192 6.0724 7.108 12.106 6.7695 11.473 0.83097 7.3767 1.0555 5.8118 1.0555 5.8118z" stroke-width=".593"/>
   <path d="m92.631 145.05s-1.1882-8.3415-6.4233-13.493c-5.2351-5.1518-8.1036-1.605-14.936-6.2219-6.5708-4.4405-6.4937-6.8223-9.4746-16.31-2.9231-9.3036-2.4354-13.062-5.2286-20.701-2.7931-7.6389-1.9156-6.4026-5.1466-10.584-3.231-4.1809-7.7775-6.1403-7.7775-6.1403s8.8736 3.6096 17.548 8.4203c8.6745 4.8108 10.339 4.563 17.15 10.823 6.8105 6.2598 7.289 5.8224 10.092 14.216 2.8033 8.394 0.94115 17.995 0.96233 23.581 0.021179 5.5862 5.9704 13.616 5.8008 13.007-1.0952 6.6067-2.567 3.4021-2.567 3.4021z" stroke-width=".564"/>
   <path d="m126.68 82.511s3.766-9.3965 2.8362-17.212c-0.92982-7.8157-4.557-7.6075-6.8015-16.322-2.1587-8.3816-0.94199-9.9992 1.7365-19.07 2.6266-8.895 4.7876-11.155 6.685-18.772 1.8974-7.6174 1.8709-6.0446 1.7872-11.574-0.083771-5.5296-2.1222-10.544-2.1222-10.544s4.0836 9.6361 7.4479 19.96c3.3644 10.324 4.5832 11.48 6.0094 21.335 1.4262 9.8557 1.9557 9.9298-0.30466 18.088-2.2604 8.1579-8.1874 13.438-10.908 17.394-2.7203 3.9552-3.1991 11.377-3.0127 10.812-3.9558 3.7824-3.3534 5.907-3.3534 5.907z" stroke-width=".522"/>
   <g stroke-width=".518">
    <path d="m229.21-2.6172s7.6982-3.3762 13.487-8.5707c5.7889-5.1945 3.9045-6.0785 9.7054-12.89 5.5791-6.5517 7.5403-6.4366 16.294-9.2917 8.5838-2.7998 11.573-2.2495 18.734-4.9444 7.1604-2.6949 5.8797-1.8299 10.286-5.0202 4.4066-3.1903 7.34-7.741 7.34-7.741s-5.5467 8.8851-12.036 17.551c-6.4899 8.6656-6.7603 10.347-13.923 17.112-7.1626 6.7647-6.9354 7.2536-14.728 9.9469-7.792 2.6932-15.253 0.99635-19.91 0.93018-4.6574-0.066177-13.366 5.1186-13.388 3.8849-1.2072-0.59473-1.8609-0.96593-1.8609-0.96593z"/>
    <path d="m179.56 28.506s6.7566-7.1258 8.8766-14.609c2.12-7.4833-1.2557-8.8355 0.010529-17.693 1.2179-8.5187 2.9374-9.4688 8.8131-16.557 5.7619-6.9513 8.5833-8.0827 13.198-14.185 4.6145-6.1025 3.9937-4.6872 6.0154-9.7378s2.0714-10.465 2.0714-10.465 0.055771 10.474-0.80308 21.266c-0.85884 10.792-0.18947 12.358-2.6323 21.903-2.4428 9.5444-1.9896 9.8365-7.139 16.275-5.1494 6.4384-12.54 8.7095-16.513 11.141-3.973 2.4314-7.2238 8.959-6.84 8.5256-5.0304 1.7499-5.0577 4.1363-5.0577 4.1363z"/>
   </g>
   <path d="m577.96 353.66s7.9279-8.6526 18.684-11.891c10.756-3.2382 11.777 2.0195 24.202 0.11896 11.95-1.8279 13.672-4.4934 24.81-13.572 10.922-8.9032 13.162-13.28 22.642-20.406 9.4796-7.1261 7.3915-6.172 14.796-9.2759 7.4044-3.1039 14.822-3.1398 14.822-3.1398s-14.312-0.16681-29.285 1.0857c-14.972 1.2524-16.95 0.19998-30.604 3.9242s-13.942 3.0175-24.013 10.973c-10.07 7.955-14.991 19.425-19.292 25.582-4.3009 6.157-14.027 11.16-13.34 10.567-3.6284 7.8058-3.4219 6.0348-3.4219 6.0348z" stroke-width=".756"/>
  </g>
  <path d="m454.47-1.3335c92.563 41.305 157.37 128.68 157.37 233.79 0 110.4-70.978 204.85-171.08 242.94v-6.5384c96.565-37.734 164.75-129.37 164.75-236.4 0-70.35-29.448-134.04-77.057-180.16-21.934-21.247-48.139-39.256-76.676-51.964 0.99814-1.7731 1.8758 0.19388 2.6908-1.671z" stroke-linecap="round" stroke-linejoin="round" stroke-width="6.533"/>
  <g fill-rule="evenodd" stroke="#000">
   <path d="m507.67 436.14s6.1441-12.234 4.0961-25.129-9.0397-11.695-13.654-25.79c-4.4374-13.556-2.1425-16.556 2.7307-32.403 4.7788-15.54 8.8748-19.839 12.288-33.064 3.4134-13.226 3.4134-10.581 3.072-19.839-0.34131-9.258-4.4374-17.193-4.4374-17.193s8.1921 15.21 15.019 31.742c6.8267 16.532 9.2161 18.185 12.288 34.387 3.072 16.202 4.096 16.202 0 30.419-4.0961 14.218-15.36 24.468-20.48 31.742-5.1201 7.2741-5.8028 19.839-5.4614 18.847-7.5094 7.2742-5.4614 6.2822-5.4614 6.2822z" stroke-width=".941"/>
   <path d="m576.22 351.35s1.1037-11.529-4.4192-21.306c-5.5229-9.7772-10.642-6.8664-18.542-16.892-7.5978-9.6422-6.7087-12.688-7.6994-26.762-0.9715-13.801 0.93591-18.392-0.40356-29.956s-0.53613-9.4412-3.6157-16.775c-3.0795-7.334-8.7025-12.561-8.7025-12.561s11.045 9.9229 21.421 21.287 12.752 12.026 20.082 24.171c7.3303 12.145 8.1336 11.86 9.2388 24.41 1.1053 12.55-4.617 23.913-6.4238 31.176-1.8068 7.2634 1.4737 17.536 1.4402 16.645-3.681 7.929-2.3758 6.5626-2.3758 6.5626z" stroke-width=".795"/>
   <path d="m607.33 239.72s-3.2168-9.2546-11.284-14.767c-8.0676-5.5124-11.258-1.4248-21.379-6.2681-9.7347-4.6582-10.091-7.3196-15.951-17.772-5.7463-10.25-5.8136-14.466-11.063-22.864-5.2492-8.398-3.8247-7.0581-8.9974-11.578-5.1727-4.5195-11.693-6.5005-11.693-6.5005s12.685 3.6269 25.333 8.6033c12.648 4.9763 14.849 4.6246 25.259 11.302 10.41 6.6776 10.972 6.1679 16.381 15.408 5.4088 9.2401 4.7479 20.038 5.8558 26.271 1.1078 6.2327 7.4992 12.937 7.1522 12.264-0.20312 7.4219 0.38648 5.9002 0.38648 5.9002z" stroke-width=".695"/>
   <path d="m589.59 141.73s-7.3668-10.4-15.924-13.342c-8.5573-2.9425-10.354 1.3949-20.565-0.47775-9.8207-1.8011-10.811-4.0534-18.66-11.851-7.6967-7.6462-8.8241-11.331-15.61-17.468-6.7863-6.1376-5.1826-5.2963-10.919-8.0477-5.7362-2.7514-12.026-2.9578-12.026-2.9578s12.178 0.20252 24.666 1.5982c12.487 1.3956 14.352 0.56964 25.284 3.9844s11.301 2.8354 18.442 9.6747c7.1413 6.8393 9.2895 16.472 11.851 21.682 2.5619 5.2103 9.933 9.5926 9.4548 9.084 1.6994 6.5622 4.0049 8.1208 4.0049 8.1208z" stroke-width=".636"/>
   <g stroke-width=".561">
    <path d="m544.82 66.889s-7.1619-4.3629-16.237-4.7122c-9.0754-0.34934-9.5168 3.2637-19.862 4.0659-9.9498 0.77154-11.564-0.69122-21.394-4.8046-9.6393-4.0336-11.809-6.5323-20.129-9.6393-8.3207-3.107-6.5343-2.826-12.848-3.6396-6.3135-0.81363-12.406 0.38506-12.406 0.38506s11.739-2.4677 24.126-4.1141c12.387-1.6465 13.932-2.6619 25.424-2.4717 11.492 0.19016 11.675-0.32034 20.544 3.2324 8.8684 3.5528 13.774 10.257 17.769 13.583 3.9957 3.3254 12.359 5.0008 11.75 4.7253 3.5679 4.5165 3.2647 3.3901 3.2647 3.3901z"/>
    <path d="m484.19 17.06s-7.8639-3.0228-16.852-1.761c-8.9886 1.2618-8.7416 4.8921-18.762 7.5107-9.6372 2.5184-11.5 1.3659-21.94-0.9397-10.238-2.2609-12.842-4.3338-21.608-5.9169-8.7665-1.5831-6.9572-1.6227-13.318-1.3059-6.3607 0.31674-12.125 2.5729-12.125 2.5729s11.076-4.5025 22.945-8.3123 13.196-5.0813 24.53-6.9269 11.418-2.38 20.807-0.45552c9.389 1.9244 15.476 7.6486 20.031 10.211 4.5554 2.5628 13.094 2.7308 12.443 2.5676 4.3592 3.8095 3.8489 2.7557 3.8489 2.7557z"/>
   </g>
   <path d="m518.97 428.03s12.261-6.5981 25.667-5.3669c13.406 1.2311 12.566 8.0138 27.354 11.64 14.223 3.488 17.185 1.113 33.242-4.4708 15.746-5.4756 19.944-9.6543 33.382-13.687 13.438-4.0324 10.712-3.8815 20.273-4.0818 9.5612-0.20032 17.972 3.2805 17.972 3.2805s-16.14-6.9993-33.566-12.612c-17.426-5.6128-19.265-7.813-36.137-9.8389s-16.93-3.0092-31.352 1.7353c-14.422 4.7446-24.348 16.146-31.555 21.478-7.2072 5.3318-20.118 6.7042-19.115 6.3198-7.0718 7.6264-6.1655 5.603-6.1655 5.603z" stroke-width=".937"/>
   <path d="m607.29 252.16s3.6513-8.866 10.403-13.558c6.7515-4.692 8.569-0.33462 16.758-4.1668 7.8757-3.6856 8.5023-6.2898 14.283-16.09 5.6686-9.6104 6.2918-13.783 11.339-21.605 5.0469-7.8223 3.805-6.6305 8.2678-10.615 4.4627-3.985 9.5832-5.3244 9.5832-5.3244s-9.9305 2.3809-20.017 6.103-11.676 3.1627-20.329 8.7855c-8.6526 5.6227-9.0013 5.0638-14.281 13.706-5.2802 8.6418-6.2565 19.409-7.928 25.481-1.6715 6.0724-7.3379 12.106-6.9884 11.473-0.85785 7.3767-1.0896 5.8118-1.0896 5.8118z" stroke-width=".602"/>
   <path d="m596.48 147.05s1.2266-8.3415 6.631-13.493c5.4044-5.1519 8.3657-1.605 15.419-6.222 6.7834-4.4405 6.7037-6.8223 9.7811-16.31 3.0176-9.3036 2.5142-13.062 5.3977-20.701 2.8834-7.6388 1.9775-6.4026 5.313-10.584 3.3356-4.181 8.0291-6.1403 8.0291-6.1403s-9.1606 3.6096-18.116 8.4203c-8.9551 4.8108-10.674 4.563-17.704 10.823-7.0308 6.2598-7.5247 5.8224-10.419 14.216-2.8939 8.394-0.97156 17.995-0.99341 23.581-0.021851 5.5862-6.1635 13.616-5.9884 13.007 1.1306 6.6067 2.6501 3.4021 2.6501 3.4021z" stroke-width=".573"/>
   <path d="m561.33 84.509s-3.8878-9.3966-2.9279-17.212c0.9599-7.8157 4.7044-7.6075 7.0215-16.322 2.2285-8.3816 0.97247-9.9991-1.7927-19.07-2.7115-8.895-4.9424-11.155-6.9012-18.772-1.9588-7.6174-1.9315-6.0446-1.845-11.574 0.086487-5.5296 2.1909-10.544 2.1909-10.544s-4.2157 9.6361-7.6888 19.96c-3.4732 10.324-4.7314 11.48-6.2038 21.335-1.4723 9.8557-2.0189 9.9298 0.31451 18.088 2.3335 8.1579 8.4522 13.438 11.26 17.394 2.8083 3.9552 3.3026 11.377 3.1102 10.812 4.0837 3.7824 3.4618 5.907 3.4618 5.907z" stroke-width=".531"/>
   <g stroke-width=".527">
    <path d="m455.48-0.6197s-7.9472-3.3762-13.923-8.5707c-5.9762-5.1945-4.0308-6.0785-10.019-12.89-5.7596-6.5517-7.7842-6.4366-16.821-9.2917-8.8614-2.7998-11.948-2.2495-19.34-4.9444-7.3919-2.6949-6.0699-1.8299-10.619-5.0202s-7.5774-7.741-7.5774-7.741 5.7261 8.8851 12.426 17.551c6.6998 8.6656 6.9789 10.347 14.373 17.112 7.3943 6.7647 7.1598 7.2536 15.204 9.9469 8.044 2.6932 15.746 0.99635 20.554 0.93018 4.8081-0.066177 13.799 5.1186 13.821 3.8849 1.2462-0.59471 1.9211-0.96591 1.9211-0.96591z"/>
    <path d="m506.74 30.504s-6.9751-7.1258-9.1637-14.609c-2.1886-7.4833 1.2963-8.8355-0.010864-17.693-1.2573-8.5187-3.0324-9.4688-9.0981-16.558-5.9482-6.9513-8.8609-8.0827-13.625-14.185-4.7637-6.1024-4.1228-4.6872-6.2099-9.7378s-2.1384-10.465-2.1384-10.465-0.057587 10.474 0.82904 21.266 0.19562 12.358 2.7175 21.903c2.5218 9.5444 2.054 9.8365 7.3699 16.275 5.3159 6.4384 12.945 8.7095 17.047 11.141 4.1014 2.4314 7.4575 8.959 7.0612 8.5256 5.193 1.7499 5.2212 4.1363 5.2212 4.1363z"/>
   </g>
  </g>
 </g>
</svg>
